<svg width="214" height="41" viewBox="0 0 214 41" fill="none" xmlns="http://www.w3.org/2000/svg">
    <path d="M20.0697 32H13.7035L5.97905 22.3657V32H0.504064V2.29077H5.97905V20.1163L13.279 10.7791H19.8151L11.2843 21.2622L20.0697 32ZM39.3492 29.3686C37.1705 31.519 34.5109 32.5942 31.3702 32.5942C28.2295 32.5942 25.5698 31.519 23.3911 29.3686C21.2407 27.1899 20.1655 24.5303 20.1655 21.3896C20.1655 18.2489 21.2407 15.6033 23.3911 13.453C25.5698 11.2743 28.2295 10.1849 31.3702 10.1849C34.5109 10.1849 37.1705 11.2743 39.3492 13.453C41.5279 15.6033 42.6172 18.2489 42.6172 21.3896C42.6172 24.5303 41.5279 27.1899 39.3492 29.3686ZM27.2533 25.5913C28.3568 26.6948 29.7291 27.2465 31.3702 27.2465C33.0112 27.2465 34.3835 26.6948 35.487 25.5913C36.5905 24.4878 37.1422 23.0872 37.1422 21.3896C37.1422 19.6919 36.5905 18.2913 35.487 17.1878C34.3835 16.0843 33.0112 15.5326 31.3702 15.5326C29.7291 15.5326 28.3568 16.0843 27.2533 17.1878C26.1781 18.2913 25.6405 19.6919 25.6405 21.3896C25.6405 23.0872 26.1781 24.4878 27.2533 25.5913ZM64.549 29.3686C62.3703 31.519 59.7106 32.5942 56.57 32.5942C53.4293 32.5942 50.7696 31.519 48.5909 29.3686C46.4405 27.1899 45.3653 24.5303 45.3653 21.3896C45.3653 18.2489 46.4405 15.6033 48.5909 13.453C50.7696 11.2743 53.4293 10.1849 56.57 10.1849C59.7106 10.1849 62.3703 11.2743 64.549 13.453C66.7277 15.6033 67.817 18.2489 67.817 21.3896C67.817 24.5303 66.7277 27.1899 64.549 29.3686ZM52.4531 25.5913C53.5566 26.6948 54.9289 27.2465 56.57 27.2465C58.211 27.2465 59.5833 26.6948 60.6868 25.5913C61.7903 24.4878 62.342 23.0872 62.342 21.3896C62.342 19.6919 61.7903 18.2913 60.6868 17.1878C59.5833 16.0843 58.211 15.5326 56.57 15.5326C54.9289 15.5326 53.5566 16.0843 52.4531 17.1878C51.3779 18.2913 50.8403 19.6919 50.8403 21.3896C50.8403 23.0872 51.3779 24.4878 52.4531 25.5913ZM84.0192 10.1849C86.8769 10.1849 89.3102 11.2743 91.3191 13.453C93.3564 15.6033 94.375 18.2489 94.375 21.3896C94.375 24.5303 93.3564 27.1899 91.3191 29.3686C89.3102 31.519 86.8769 32.5942 84.0192 32.5942C81.0482 32.5942 78.7564 31.5614 77.1436 29.4959V40.4884H71.6686V10.7791H77.1436V13.2832C78.7564 11.2177 81.0482 10.1849 84.0192 10.1849ZM78.7988 25.7186C79.9023 26.8221 81.3029 27.3738 83.0006 27.3738C84.6982 27.3738 86.0988 26.8221 87.2023 25.7186C88.3341 24.5868 88.9 23.1438 88.9 21.3896C88.9 19.6353 88.3341 18.2064 87.2023 17.1029C86.0988 15.9712 84.6982 15.4053 83.0006 15.4053C81.3029 15.4053 79.9023 15.9712 78.7988 17.1029C77.6953 18.2064 77.1436 19.6353 77.1436 21.3896C77.1436 23.1438 77.6953 24.5868 78.7988 25.7186ZM102.862 23.639C103.598 26.2987 105.593 27.6285 108.847 27.6285C110.94 27.6285 112.525 26.9211 113.6 25.5064L118.014 28.0529C115.92 31.0804 112.836 32.5942 108.762 32.5942C105.253 32.5942 102.438 31.5331 100.316 29.4111C98.1937 27.289 97.1327 24.6151 97.1327 21.3896C97.1327 18.1923 98.1796 15.5326 100.273 13.4105C102.367 11.2601 105.055 10.1849 108.337 10.1849C111.45 10.1849 114.01 11.2601 116.019 13.4105C118.056 15.5609 119.075 18.2206 119.075 21.3896C119.075 22.0969 119.004 22.8467 118.863 23.639H102.862ZM102.777 19.3948H113.6C113.289 17.9518 112.638 16.8766 111.648 16.1692C110.686 15.4619 109.582 15.1082 108.337 15.1082C106.866 15.1082 105.649 15.4902 104.687 16.2541C103.725 16.9898 103.089 18.0367 102.777 19.3948ZM128.372 14.4291C128.881 13.071 129.716 12.0524 130.876 11.3733C132.065 10.6942 133.38 10.3547 134.823 10.3547V16.4663C133.154 16.2683 131.654 16.6078 130.324 17.4849C129.023 18.362 128.372 19.8192 128.372 21.8564V32H122.897V10.7791H128.372V14.4291ZM153.366 10.7791H158.841V32H153.366V29.4959C151.725 31.5614 149.419 32.5942 146.448 32.5942C143.618 32.5942 141.185 31.519 139.148 29.3686C137.139 27.1899 136.134 24.5303 136.134 21.3896C136.134 18.2489 137.139 15.6033 139.148 13.453C141.185 11.2743 143.618 10.1849 146.448 10.1849C149.419 10.1849 151.725 11.2177 153.366 13.2832V10.7791ZM143.265 25.7186C144.368 26.8221 145.769 27.3738 147.466 27.3738C149.164 27.3738 150.565 26.8221 151.668 25.7186C152.8 24.5868 153.366 23.1438 153.366 21.3896C153.366 19.6353 152.8 18.2064 151.668 17.1029C150.565 15.9712 149.164 15.4053 147.466 15.4053C145.769 15.4053 144.368 15.9712 143.265 17.1029C142.161 18.2064 141.609 19.6353 141.609 21.3896C141.609 23.1438 142.161 24.5868 143.265 25.7186ZM175.944 16.0419H171.148V24.8698C171.148 25.6054 171.332 26.143 171.7 26.4826C172.067 26.8221 172.605 27.0202 173.312 27.0768C174.02 27.1051 174.897 27.0909 175.944 27.0343V32C172.181 32.4244 169.521 32.0707 167.965 30.939C166.437 29.8072 165.673 27.7841 165.673 24.8698V16.0419H161.98V10.7791H165.673V6.4925L171.148 4.83727V10.7791H175.944V16.0419ZM182.52 8.23262C181.615 8.23262 180.823 7.90723 180.143 7.25646C179.493 6.57739 179.167 5.78514 179.167 4.87971C179.167 3.97429 179.493 3.18205 180.143 2.50298C180.823 1.82391 181.615 1.48437 182.52 1.48437C183.454 1.48437 184.246 1.82391 184.897 2.50298C185.576 3.18205 185.916 3.97429 185.916 4.87971C185.916 5.78514 185.576 6.57739 184.897 7.25646C184.246 7.90723 183.454 8.23262 182.52 8.23262ZM179.804 32V10.7791H185.279V32H179.804ZM213.463 6.53494C210.464 6.30859 208.964 7.5111 208.964 10.1425V10.7791H213.463V16.0419H208.964V32H203.489V16.0419H197.208V32H191.733V16.0419H188.677V10.7791H191.733V10.5669C191.733 7.5677 192.568 5.28999 194.237 3.73379C195.906 2.17759 198.396 1.49852 201.707 1.69658V6.95936C198.708 6.73301 197.208 7.93552 197.208 10.5669V10.7791H203.489V10.1425C203.489 7.14328 204.324 4.86557 205.993 3.30937C207.691 1.75317 210.181 1.07411 213.463 1.27217V6.53494Z" fill="white"/>
</svg>
