<svg width="133" height="25" viewBox="0 0 133 25" fill="none" xmlns="http://www.w3.org/2000/svg">
<path d="M0.965332 1.00684H4.66406V8.4165L11.6099 1.00684H16.4683L9.09521 8.4165L16.8467 19H12.0127L6.4585 11.1387L4.66406 12.9819V19H0.965332V1.00684ZM24.6592 16.5464C25.6764 16.5464 26.4577 16.1842 27.0029 15.46C27.5482 14.7357 27.8208 13.7062 27.8208 12.3716C27.8208 11.0369 27.5482 10.0116 27.0029 9.29541C26.4577 8.57113 25.6764 8.20898 24.6592 8.20898C23.6419 8.20898 22.8566 8.57113 22.3032 9.29541C21.758 10.0116 21.4854 11.0369 21.4854 12.3716C21.4854 13.7062 21.758 14.7357 22.3032 15.46C22.8566 16.1842 23.6419 16.5464 24.6592 16.5464ZM31.4707 12.3716C31.4707 14.3247 30.9092 15.9971 29.7861 17.3887C28.6631 18.7721 26.9582 19.4639 24.6714 19.4639C22.3846 19.4639 20.6797 18.7721 19.5566 17.3887C18.4336 15.9971 17.8721 14.3247 17.8721 12.3716C17.8721 10.451 18.4336 8.78678 19.5566 7.37891C20.6797 5.97103 22.3846 5.26709 24.6714 5.26709C26.9582 5.26709 28.6631 5.97103 29.7861 7.37891C30.9092 8.78678 31.4707 10.451 31.4707 12.3716ZM39.9424 16.5464C40.9596 16.5464 41.7409 16.1842 42.2861 15.46C42.8314 14.7357 43.104 13.7062 43.104 12.3716C43.104 11.0369 42.8314 10.0116 42.2861 9.29541C41.7409 8.57113 40.9596 8.20898 39.9424 8.20898C38.9251 8.20898 38.1398 8.57113 37.5864 9.29541C37.0412 10.0116 36.7686 11.0369 36.7686 12.3716C36.7686 13.7062 37.0412 14.7357 37.5864 15.46C38.1398 16.1842 38.9251 16.5464 39.9424 16.5464ZM46.7539 12.3716C46.7539 14.3247 46.1924 15.9971 45.0693 17.3887C43.9463 18.7721 42.2414 19.4639 39.9546 19.4639C37.6678 19.4639 35.9629 18.7721 34.8398 17.3887C33.7168 15.9971 33.1553 14.3247 33.1553 12.3716C33.1553 10.451 33.7168 8.78678 34.8398 7.37891C35.9629 5.97103 37.6678 5.26709 39.9546 5.26709C42.2414 5.26709 43.9463 5.97103 45.0693 7.37891C46.1924 8.78678 46.7539 10.451 46.7539 12.3716ZM58.4238 12.3472C58.4238 11.3218 58.1878 10.4144 57.7158 9.625C57.252 8.83561 56.4951 8.44092 55.4453 8.44092C54.1839 8.44092 53.3172 9.03906 52.8452 10.2354C52.6011 10.8701 52.479 11.6758 52.479 12.6523C52.479 14.1986 52.89 15.285 53.7119 15.9116C54.2002 16.2778 54.778 16.4609 55.4453 16.4609C56.4137 16.4609 57.1502 16.0866 57.6548 15.3379C58.1675 14.5892 58.4238 13.5923 58.4238 12.3472ZM56.4463 5.40137C58.0007 5.40137 59.3149 5.9751 60.3892 7.12256C61.4715 8.27002 62.0127 9.95459 62.0127 12.1763C62.0127 14.52 61.4837 16.3063 60.4258 17.5352C59.376 18.764 58.021 19.3784 56.3608 19.3784C55.3029 19.3784 54.424 19.1139 53.7241 18.585C53.3416 18.292 52.9673 17.8647 52.6011 17.3032V24.2368H49.1587V5.69434H52.4912V7.65967C52.8656 7.08187 53.2643 6.62614 53.6875 6.29248C54.4606 5.6984 55.3802 5.40137 56.4463 5.40137ZM69.7886 8.20898C68.9829 8.20898 68.3563 8.46126 67.9087 8.96582C67.4692 9.47038 67.1925 10.154 67.0786 11.0166H72.4863C72.4294 10.097 72.1486 9.4012 71.644 8.9292C71.1476 8.44906 70.5291 8.20898 69.7886 8.20898ZM69.7886 5.34033C70.8953 5.34033 71.8923 5.54785 72.7793 5.96289C73.6663 6.37793 74.3988 7.03304 74.9766 7.92822C75.4974 8.71761 75.8351 9.63314 75.9897 10.6748C76.0793 11.2852 76.1159 12.1641 76.0996 13.3115H66.9932C67.042 14.6462 67.4611 15.582 68.2505 16.1191C68.7306 16.4528 69.3084 16.6196 69.9839 16.6196C70.7 16.6196 71.2819 16.4162 71.7295 16.0093C71.9736 15.7896 72.1893 15.4844 72.3765 15.0938H75.9287C75.8392 15.8831 75.4282 16.6847 74.6958 17.4985C73.5565 18.7925 71.9614 19.4395 69.9106 19.4395C68.2179 19.4395 66.7246 18.8942 65.4307 17.8037C64.1367 16.7132 63.4897 14.9391 63.4897 12.4814C63.4897 10.1784 64.0716 8.41243 65.2354 7.18359C66.4072 5.95475 67.925 5.34033 69.7886 5.34033ZM85.6821 5.37695C85.7472 5.37695 85.8001 5.38102 85.8408 5.38916C85.8896 5.38916 85.9914 5.39323 86.146 5.40137V8.96582C85.9263 8.94141 85.731 8.92513 85.5601 8.91699C85.3892 8.90885 85.2508 8.90479 85.145 8.90479C83.7453 8.90479 82.8053 9.36051 82.3252 10.272C82.0566 10.7847 81.9224 11.5741 81.9224 12.6401V19H78.4189V5.69434H81.7393V8.01367C82.2764 7.12663 82.7443 6.52035 83.1431 6.19482C83.7941 5.64958 84.6405 5.37695 85.6821 5.37695ZM95.5332 12.5303C95.3135 12.6686 95.0897 12.7826 94.8618 12.8721C94.6421 12.9535 94.3369 13.0308 93.9463 13.104L93.165 13.2505C92.4326 13.3807 91.9077 13.5394 91.5903 13.7266C91.0532 14.0439 90.7847 14.5363 90.7847 15.2036C90.7847 15.7977 90.9474 16.229 91.2729 16.4976C91.6066 16.758 92.0094 16.8882 92.4814 16.8882C93.2301 16.8882 93.9178 16.6685 94.5444 16.229C95.1792 15.7896 95.5088 14.988 95.5332 13.8242V12.5303ZM93.4214 10.9067C94.0643 10.8254 94.5241 10.7236 94.8008 10.6016C95.2972 10.39 95.5454 10.0604 95.5454 9.61279C95.5454 9.06755 95.3542 8.6932 94.9717 8.48975C94.5973 8.27816 94.0439 8.17236 93.3115 8.17236C92.4896 8.17236 91.9077 8.37581 91.5659 8.78271C91.3218 9.08382 91.159 9.49072 91.0776 10.0034H87.7207C87.7939 8.83968 88.1195 7.88346 88.6973 7.13477C89.6169 5.96289 91.1956 5.37695 93.4336 5.37695C94.8903 5.37695 96.1842 5.66585 97.3154 6.24365C98.4466 6.82145 99.0122 7.91195 99.0122 9.51514V15.6187C99.0122 16.0418 99.0203 16.5545 99.0366 17.1567C99.061 17.6125 99.1302 17.9217 99.2441 18.0845C99.3581 18.2472 99.529 18.3815 99.7568 18.4873V19H95.9727C95.8669 18.7314 95.7936 18.4792 95.7529 18.2432C95.7122 18.0072 95.6797 17.7386 95.6553 17.4375C95.1751 17.9583 94.6217 18.4019 93.9951 18.7681C93.2464 19.1994 92.4001 19.415 91.4561 19.415C90.2516 19.415 89.2547 19.0732 88.4653 18.3896C87.6841 17.6979 87.2935 16.7214 87.2935 15.46C87.2935 13.8242 87.9242 12.6401 89.1855 11.9077C89.8773 11.509 90.8945 11.2241 92.2373 11.0532L93.4214 10.9067ZM100.746 8.29443V5.81641H102.601V2.10547H106.043V5.81641H108.204V8.29443H106.043V15.3257C106.043 15.8709 106.113 16.2127 106.251 16.3511C106.389 16.4813 106.812 16.5464 107.521 16.5464C107.626 16.5464 107.736 16.5464 107.85 16.5464C107.972 16.5382 108.09 16.5301 108.204 16.522V19.1221L106.556 19.1831C104.912 19.2401 103.789 18.9552 103.187 18.3286C102.796 17.9299 102.601 17.3154 102.601 16.4854V8.29443H100.746ZM114.015 4.10742H110.487V0.896973H114.015V4.10742ZM110.487 5.69434H114.015V19H110.487V5.69434ZM122.303 0.82373C122.523 0.82373 122.722 0.831868 122.901 0.848145C123.08 0.856283 123.325 0.872559 123.634 0.896973V3.729C123.438 3.70459 123.109 3.68831 122.645 3.68018C122.189 3.6639 121.872 3.76562 121.693 3.98535C121.522 4.19694 121.437 4.43294 121.437 4.69336C121.437 4.95378 121.437 5.32812 121.437 5.81641H123.719V8.27002H121.437V19H117.97V8.27002H116.029V5.81641H117.933V4.96191C117.933 3.53776 118.173 2.55713 118.653 2.02002C119.158 1.22249 120.375 0.82373 122.303 0.82373ZM130.628 0.82373C130.848 0.82373 131.048 0.831868 131.227 0.848145C131.406 0.856283 131.65 0.872559 131.959 0.896973V3.729C131.764 3.70459 131.434 3.68831 130.97 3.68018C130.514 3.6639 130.197 3.76562 130.018 3.98535C129.847 4.19694 129.762 4.43294 129.762 4.69336C129.762 4.95378 129.762 5.32812 129.762 5.81641H132.044V8.27002H129.762V19H126.295V8.27002H124.354V5.81641H126.258V4.96191C126.258 3.53776 126.498 2.55713 126.979 2.02002C127.483 1.22249 128.7 0.82373 130.628 0.82373Z" fill="white"/>
</svg>
