<svg width="29" height="27" viewBox="0 0 29 27" fill="none" xmlns="http://www.w3.org/2000/svg">
<path d="M14.3333 0.730774C6.41641 0.730774 0 6.04597 0 12.6058C0 15.4375 1.19818 18.0294 3.19141 20.0676C2.49154 22.945 0.151172 25.5084 0.123177 25.5369C0 25.6683 -0.0335937 25.8624 0.0391927 26.0336C0.111979 26.2049 0.26875 26.3077 0.447917 26.3077C4.16003 26.3077 6.94271 24.4922 8.32005 23.3732C10.1509 24.0754 12.1833 24.4808 14.3333 24.4808C22.2503 24.4808 28.6667 19.1656 28.6667 12.6058C28.6667 6.04597 22.2503 0.730774 14.3333 0.730774ZM7.16667 14.4327C6.17565 14.4327 5.375 13.6163 5.375 12.6058C5.375 11.5952 6.17565 10.7788 7.16667 10.7788C8.15768 10.7788 8.95833 11.5952 8.95833 12.6058C8.95833 13.6163 8.15768 14.4327 7.16667 14.4327ZM14.3333 14.4327C13.3423 14.4327 12.5417 13.6163 12.5417 12.6058C12.5417 11.5952 13.3423 10.7788 14.3333 10.7788C15.3243 10.7788 16.125 11.5952 16.125 12.6058C16.125 13.6163 15.3243 14.4327 14.3333 14.4327ZM21.5 14.4327C20.509 14.4327 19.7083 13.6163 19.7083 12.6058C19.7083 11.5952 20.509 10.7788 21.5 10.7788C22.491 10.7788 23.2917 11.5952 23.2917 12.6058C23.2917 13.6163 22.491 14.4327 21.5 14.4327Z" fill="url(#paint0_linear_186_98)"/>
<defs>
<linearGradient id="paint0_linear_186_98" x1="14.3333" y1="0.730774" x2="14.3333" y2="26.3077" gradientUnits="userSpaceOnUse">
<stop stop-color="#8757E8"/>
<stop offset="1" stop-color="#5777E8"/>
</linearGradient>
</defs>
</svg>
