<svg width="35" height="35" viewBox="0 0 35 35" fill="none" xmlns="http://www.w3.org/2000/svg">
<rect width="35" height="35" rx="7" fill="#F4F4F9"/>
<path d="M18 24C21.1562 24 23.7143 21.5379 23.7143 18.5C23.7143 15.4621 21.1562 13 18 13C14.8438 13 12.2857 15.4621 12.2857 18.5C12.2857 21.5379 14.8438 24 18 24ZM22 25.375H21.2545C20.2634 25.8133 19.1607 26.0625 18 26.0625C16.8393 26.0625 15.7411 25.8133 14.7455 25.375H14C10.6875 25.375 8 27.9617 8 31.15V32.9375C8 34.0762 8.95982 35 10.1429 35H25.8571C27.0402 35 28 34.0762 28 32.9375V31.15C28 27.9617 25.3125 25.375 22 25.375Z" fill="url(#paint0_linear_274_592)"/>
<defs>
<linearGradient id="paint0_linear_274_592" x1="18" y1="13" x2="18" y2="35" gradientUnits="userSpaceOnUse">
<stop stop-color="#8757E8"/>
<stop offset="1" stop-color="#5777E8"/>
</linearGradient>
</defs>
</svg>
