<svg width="18" height="16" viewBox="0 0 18 16" fill="none" xmlns="http://www.w3.org/2000/svg">
<path d="M0.642857 2.93878H17.3571C17.7122 2.93878 18 2.64641 18 2.28571V0.653061C18 0.292367 17.7122 0 17.3571 0H0.642857C0.287799 0 0 0.292367 0 0.653061V2.28571C0 2.64641 0.287799 2.93878 0.642857 2.93878ZM0.642857 9.46939H17.3571C17.7122 9.46939 18 9.17702 18 8.81633V7.18367C18 6.82298 17.7122 6.53061 17.3571 6.53061H0.642857C0.287799 6.53061 0 6.82298 0 7.18367V8.81633C0 9.17702 0.287799 9.46939 0.642857 9.46939ZM0.642857 16H17.3571C17.7122 16 18 15.7076 18 15.3469V13.7143C18 13.3536 17.7122 13.0612 17.3571 13.0612H0.642857C0.287799 13.0612 0 13.3536 0 13.7143V15.3469C0 15.7076 0.287799 16 0.642857 16Z" fill="url(#paint0_linear_274_608)"/>
<defs>
<linearGradient id="paint0_linear_274_608" x1="9.45" y1="1.82857" x2="9.45" y2="18.7429" gradientUnits="userSpaceOnUse">
<stop stop-color="#8757E8"/>
<stop offset="1" stop-color="#5777E8"/>
</linearGradient>
</defs>
</svg>
